<svg xmlns="http://www.w3.org/2000/svg" viewBox="0 0 248 248"><defs><style>.cls-1{fill:#e35500;}.cls-2,.cls-3,.cls-4{fill:#f0ab00;}.cls-3{opacity:0.7;}.cls-4{opacity:0.4;}.cls-5{fill:#fff;}</style></defs><title>285857-pictogram-neg</title><g id="color_band" data-name="color band"><path class="cls-1" d="M124.59,86.46l1.19-.88c.08-.06.36-.27.8-.63,3-2.47,13.54-11.83,13.54-23.39,0-13.23-13.75-23.59-14.34-24l-1.19-.88-1.19.88c-.58.43-14.33,10.79-14.33,24,0,11.54,10.45,20.88,13.51,23.38l.82.64Z"/></g><g id="_100_band" data-name="100% band"><path class="cls-2" d="M125.78,37.54l-1.19-.88-1.19.88a44.9,44.9,0,0,0-10.48,11.57h23.35A44.84,44.84,0,0,0,125.78,37.54Z"/></g><g id="_70_band" data-name="70% band"><path class="cls-3" d="M140.12,61.56a24.18,24.18,0,0,0-3.85-12.45H112.92a24.18,24.18,0,0,0-3.85,12.45Z"/></g><g id="_40_band" data-name="40% band"><path class="cls-4" d="M136.27,74a24.15,24.15,0,0,0,3.85-12.45H109.07A24.15,24.15,0,0,0,112.92,74Z"/></g><g id="outlines_--_combound_path" data-name="outlines -- combound path"><path class="cls-5" d="M153.35,211.5H153c-4.44-9.63-14.51-16.59-26.44-17.42V118l17.12-6.88c1.93,1.09,10.12,5.38,18.87,5.38h0a21.78,21.78,0,0,0,8.37-1.56c12.22-5.06,16.53-21.73,16.71-22.44l.36-1.44-1.27-.76c-.38-.23-9.49-5.62-19.3-5.62a21.87,21.87,0,0,0-8.38,1.57c-10.24,4.23-14.92,16.61-16.27,20.93l-16.21,6.51V85c-.44.36-.72.57-.8.63l-1.19.88-1.19-.88-.82-.64v28.81l-16.31-6.55c-1.36-4.32-6-16.7-16.27-20.93a21.88,21.88,0,0,0-8.39-1.57c-9.8,0-18.91,5.39-19.29,5.62l-1.27.76.36,1.44c.18.71,4.48,17.38,16.71,22.44a21.78,21.78,0,0,0,8.37,1.56c8.75,0,16.93-4.29,18.86-5.38l17.23,6.92v76c-12.27.56-22.7,7.6-27.23,17.44H34.18v4h180v-4ZM160.59,90a17.83,17.83,0,0,1,6.85-1.26c6.64,0,13.15,2.92,15.89,4.32-1.28,4-5.46,14.74-13.92,18.24a17.81,17.81,0,0,1-6.84,1.26h0a35.68,35.68,0,0,1-13.9-3.37l26.2-10.52-1.49-3.72-25.6,10.29C149.76,100.3,153.8,92.77,160.59,90Zm-60.2,19.19a35.68,35.68,0,0,1-13.9,3.37,17.74,17.74,0,0,1-6.84-1.26C71.21,107.77,67,97,65.73,93c2.73-1.4,9.23-4.32,15.88-4.32A17.88,17.88,0,0,1,88.47,90c6.79,2.81,10.82,10.34,12.81,15.24L75.67,94.91l-1.49,3.72Zm-.23,102.35h-.32c4.49-8,13.71-13.5,24.34-13.5s19.86,5.5,24.35,13.5Z"/></g></svg>