<svg xmlns="http://www.w3.org/2000/svg" viewBox="0 0 248 248"><defs><style>.cls-1{fill:#e35500;}.cls-2,.cls-3,.cls-4{fill:#f0ab00;}.cls-3{opacity:0.7;}.cls-4{opacity:0.4;}.cls-5{fill:#fff;}</style></defs><title>283543-pictogram-neg</title><g id="color_band" data-name="color band"><path class="cls-1" d="M192.18,194.5l8.49,2.59q-1.93,2-4,4Zm-43.89,32.71q2.75-.64,5.44-1.43l-3.44-7.1Zm-119-78.35-7.48.6q.62,2.58,1.37,5.1Zm0-48.31-6.13-5.72q-.75,2.53-1.37,5.12Zm124.36-77q-2.66-.77-5.37-1.41l2,8.53Zm47,28.71q-1.93-2-4-4l-4.53,6.57ZM120.43,126.7H107.7l3.69,15.66Zm6.93-4h18l-11.7-11Zm-3.46-2,6.33-11-15.33-4.63Zm-3.46,2-9-15.66-3.7,15.66Zm6.93,4,6.36,11,11.68-11Zm-3.47,2-9,15.65,15.4-4.62Zm57.75-2,9,15.63,3.69-15.63Zm-3.44-6,9-15.66-15.4,4.65Zm-6.35,19,15.36,4.61-9-15.61Zm-15.2-17h18.06l-6.34-11Zm18.1,4H156.64l11.73,11.06Zm6.93-4h12.66l-3.67-15.57Zm-81.47,51,9.06,15.7L113,173.7Zm0-4H113L109.27,154Zm-3.46-2,9-15.54-15.28,4.62Zm-3.46,2L87,158.77,75.28,169.7Zm0,4h-18l11.66,11Zm-2.92,13.05,15.44,4.63L96.76,175.7Zm6.41-105L90.4,92.78l15.44,4.63Zm3.48-6H113l-3.7-15.63Zm-6.93,4H75.26L87,90.76Zm6.89,0,9.07,15.72L113,79.7Zm-3.45-6,9-15.55L90.47,62.8Zm-3.48,2L87,64.79,75.32,75.7ZM213.09,181.15q2.31-3.63,4.33-7.46h-8.64Zm6.33-11.46c.76-1.61,1.5-3.23,2.18-4.87l-6.42-6-6.28,10.88Zm-17.56,0-9-15.65-3.7,15.65Zm3.52-1.91,6.35-11-15.37-4.65ZM202,173.7H189.11l3.72,15.81Zm-5.57,17.65,12.21-3.66c.69-.92,1.36-1.87,2-2.81l-5.24-9.08ZM174.71,216.7l-6.26-10.84-11.7,10.84Zm17.06-11.25-1-4.32-5.32,9.22C187.59,208.79,189.72,207.16,191.77,205.45Zm-13.54,9.35,9-15.53-15.27,4.61Zm-18.29,9c2.55-.92,5.06-1.95,7.51-3.06H156.73Zm-39.51-7.06-9-15.63-3.69,15.63Zm12.09,12.94c1.25-.1,2.5-.21,3.74-.35l9.14-8.58h-18Zm-12.7.23c1.46.06,2.92.11,4.4.11,1.29,0,2.56,0,3.84-.08l-4.12-7.14Zm4.11-15.12,6.38-11.06-15.44-4.64Zm-16.2,5.95,1.95,8.27c1.88.26,3.78.45,5.69.61l5.13-8.88Zm19.7-4h18l-11.68-11Zm-84.92-49,6.31-10.92L33.53,152.2Zm3.44,6,6.4,11.08L64,173.7Zm.05-4H64L52.28,158.8ZM37.5,184.4c1.12,1.62,2.26,3.22,3.47,4.77l7.91-2.38L42.5,175.74ZM30,154.09l-2.77,11.69c.56,1.32,1.16,2.62,1.78,3.92H39Zm1,19.61q1.88,3.57,4,7l4-7ZM20.54,143.3l3.91,1.17-4.95-8.57C19.77,138.4,20.11,140.87,20.54,143.3Zm-.07-36.88c-.42,2.4-.75,4.84-1,7.29l4.89-8.46ZM31.61,126.7H18.93c0,.07,0,.15,0,.22l9,15.55ZM27.9,107.12l-9,15.55v0H31.6ZM42.53,81.78l-9,15.55,15.29-4.62ZM46,75.7H64l-11.65-11ZM35,68.71q-2.14,3.41-4,7H39Zm11,11,6.37,11,11.74-11Zm3-17L40.85,60.3c-1.18,1.52-2.3,3.09-3.4,4.68l5.08,8.79Zm-20,17c-.6,1.26-1.18,2.53-1.73,3.82L30,95.41,39.11,79.7ZM130.31,45.78l-6.38-11.06-9.06,15.69ZM120.47,32.7H107.72L111.4,48.4Zm-5.2-13c-1.87.16-3.74.35-5.59.6l-2,8.35h12.74Zm12.86-.31c-1.3,0-2.61-.08-3.92-.08-1.5,0-3,0-4.48.11l4.19,7.27Zm17.31,9.27L136.11,20c-1.16-.13-2.34-.24-3.51-.33l-5.2,9Zm-18.07,4,6.38,11.05L145.39,32.7Zm74.52,47H189.13l3.71,15.68Zm-27.2-47h-18l11.63,11Zm36,31.82c-.65-.93-1.3-1.85-2-2.76L196.28,58l9.06,15.69Zm-8.8,11.18-9-15.64L189.14,75.7ZM187.23,50.37l-9.06-15.69-6.38,11.06Zm18.11,31.36-9,15.54,15.28-4.62ZM160,25.58l-3.34,3.12h11C165.12,27.56,162.58,26.52,160,25.58Zm55.14,65.09,6.5-6.09c-.68-1.65-1.42-3.28-2.18-4.89H208.79ZM191.75,43.86q-3.18-2.66-6.58-5.07l5.52,9.57ZM217.46,75.7q-2-3.83-4.32-7.46l-4.31,7.46ZM189,194.24l-21.78-20.3-.25-.24H154.5l4,6.94,5,8.73,1.71,3L189,194.24Zm.87-43.19-25.7,2.06-.56,1-4.93,8.54-4.09,7.08h15.3l20-18.65Zm-34.66,9.56h0l5-8.58,1.73-3-10.2-21.43-6.72,29-.09.38.58,1h0l5.62,9.74Zm5.43,31.67-.58-1-5-8.66h0l-4-6.87-5.51,9.55h0l-.81,1.4L143.41,189h0l6.15,26.54ZM139.45,173.7H126l-13.46,19.49,28.48-8.67.39-.12.57-1,5.6-9.71Zm-9.91-4h18L142,160.06l-.78-1.35-1.32-2.29h0l-26.08-8,14.65,21.23ZM189,100.29,167.19,80l-.28-.26H154.51l4,7,5,8.71,1.74,3h0L189,100.29ZM151.67,33.56l-6.72,29.1-.08.34.61,1.05L151,73.68l4.07-7.05h0L160,58.1l1.8-3.11h0L151.67,33.56ZM189.82,57,164,59.15l-.5.86-5,8.59-4.1,7.09h15.38L189.82,57ZM128.46,75.7h19.12L142,66.06l-.77-1.33-1.3-2.26h0l-26.11-8Zm26.6,13-4-7-5.59,9.68h0l-.78,1.35-1.28,2.22h0l6.18,26.63,11.06-23.28-.55-1h0Zm-14,1.9.29-.09.65-1.12,5.57-9.64H126L112.57,99.23Zm-64-51,5,8.73,1.71,3h0l23.7,1.9L85.76,32.89l-.21-.19H73.09Zm-8.95,35,11-23.33-.57-1-5-8.67-3.93-6.81-5.47,9.47-.83,1.44L62,48.06h0l6.13,26.52ZM85.83,28.7h2.55l5.15-4.81q-4.16,1.26-8.16,2.85-2.32.92-4.59,2h5ZM59.63,43.48h0l.48-.15.51-.88,1.75-3q-2,1.44-3.9,3c-.93.74-1.83,1.51-2.73,2.28h0Zm23,156.62-.54.93h0l-4.94,8.56-4.11,7.11H88.41l20-18.67Zm-8.95,7.5L78.67,199l1.75-3h0l-10.18-21.4-6.72,29-.09.39.58,1,5.61,9.72,4.11-7.12ZM85.54,220.7H80.94q2.19,1,4.43,1.88c1.22.48,2.45.93,3.68,1.37l-3.29-3ZM60.58,207h0l-.78-1.35-1.32-2.29h0l-6.28-1.92q3,2.85,6.29,5.45,1.79,1.43,3.64,2.78l0-.06Zm7.56-38.49h0L79.2,145.28l-.55-.95-5-8.69-4-6.91-5.55,9.61-.8,1.38L62,142h0Zm5.6-54.91h0l4.95-8.57,1.74-3h0L70.24,80.62l-6.72,29-.08.34.61,1.06h0l5.59,9.67Zm-13.91-1.92-1.3-2.25-26.12-8h0L47,122.7H66.16l-5.57-9.64Zm-.19,25.83.37-.11.59-1,5.61-9.72H44.61L31.15,146.24h0Zm13.5-14.86h15.3l20-18.63h0l-25.7,2.08-.55.95-4.94,8.55Zm34.41,24.57L85.76,126.94l-.26-.24H73.09l4,7,5,8.71,1.74,3,23.67,1.89ZM227,138.35h0l-.8,1.38L224.87,142l1.72,7.42q1.08-4.46,1.77-9.05.41-2.77.68-5.59h0Zm-.57-28.69-.1.41.56,1h0l2.18,3.77h0q-.27-2.9-.69-5.75c-.3-2-.67-4-1.08-5.91.1.46.21.92.3,1.39ZM211,126.7h-3.5L194,146.21l28.51-8.66.36-.11.59-1,5.61-9.71H211Zm-1.07-4H229l-5.53-9.57-.79-1.36-1.34-2.31-26.07-8Z"/></g><g id="_100_band" data-name="100% band"><path class="cls-2" d="M139.44,169.7l2.56-9.64,5.57,9.64Zm-65.71-56-9.68-2.59,5.59,9.67ZM145.44,158h0l5.62,9.74,4.12-7.13Zm9.07-78.31,4,7,7.15-7Zm4.13,82.92-4.09,7.08h11.17Zm-89-33.88-5.55,9.61,9.54-2.69ZM58,122.7h8.14l-5.57-9.64Zm93,53-5.51,9.55,9.48-2.68ZM62.34,39.47c-.7.52-1.41,1-2.1,1.56l.38,1.42h0ZM229,122.7l-5.53-9.57-2.55,9.57Zm-148,98c.73.33,1.46.65,2.2,1l1-1H81Zm142.47-84.29,5.61-9.71h-8.18ZM73.09,126.7l4,7,7.14-7Zm78-45-5.59,9.68,9.61-2.72Zm-3.47-2h-8.12L142,89.34ZM58,126.7l2.57,9.72,5.61-9.72Zm96.48,47,4,6.94,7.15-6.94Zm-6.87,0h-8.18L142,183.4ZM60.25,208.29c.61.46,1.22.92,1.84,1.37L60.58,207Zm12.84,8.41H84.31l-7.12-7.11Zm81.41-141H165.7l-7.11-7.09ZM64,205l5.61,9.72,4.11-7.12Zm9.12-82.29H84.28l-7.08-7.05ZM228.7,137.86c.13-1,.23-2,.33-3.05l-2,3.54ZM147.58,75.7,142,66.06l-2.56,9.64ZM69.67,34.77l-5.47,9.47h0l9.4-2.65ZM151,73.68l4.07-7.05-9.63-2.58Zm-66.7-45-1.07-1.07c-.82.34-1.62.71-2.43,1.07ZM77.08,39.6l7.1-6.9H73.09l4,6.9Zm151.63,71.93-1.83-.49,2.18,3.77C229,113.71,228.85,112.62,228.71,111.53Z"/></g><g id="_70_band" data-name="70% band"><path class="cls-3" d="M60,137.44l-.37.11L48.11,126.7H58l2.57,9.72h0Zm18.65,6.9-5-8.69-9.54,2.69-.8,1.38,15.35,4.61Zm0-39.26h0l-15.16,4.58h0l-.08.34.61,1.06,9.68,2.59Zm-18.09,8-.77-1.33h0l-11.7,11H58l2.57-9.64ZM85.5,126.7H84.24l-7.14,7h0l5,8.71h0l3.64-15.42Zm.32-4-3.68-15.6-4.94,8.55h0l7.08,7.05Zm53.63,51h-9.9l11.51,10.82.39-.12.57-1h0l-2.58-9.71ZM155,182.62l-9.48,2.68-.81,1.4L160,191.28Zm.15-22,5-8.58h0l-15.18,4.59-.09.38.58,1h0l9.74,2.6ZM142,160.06l-.78-1.35h0l-11.69,11h9.9l2.56-9.64Zm24.93,13.64h-1.28l-7.15,6.94h0l5,8.73h0l3.65-15.43Zm-8.3-11.08h0l7.08,7.08h1.53l-3.68-15.62ZM141.06,90.55l.29-.09.65-1.12h0l-2.56-9.64h-9.91l11.53,10.85Zm3.61,2.16,15.4,4.62-5-8.68-9.61,2.72Zm.28-30.05-.08.34.61,1.05h0l9.63,2.58h0L160,58.1l-15.08,4.56Zm-5.5,13h0L142,66.06l-.77-1.33h0l-11.68,11Zm27.46,4h-1.24l-7.15,7,5,8.71h0L167.19,80ZM158.59,68.6h0l7.11,7.09h1.55L163.55,60ZM82.12,48.33l3.65-15.44-.21-.19H84.18l-7.1,6.9Zm-3.51,1.92-5-8.67-9.4,2.65-.83,1.44h0l15.23,4.57ZM78.67,199h0L63.52,203.6h0l-.09.39.58,1,9.72,2.6Zm3.47,2-4.94,8.56h0l7.12,7.11h1.51L82.13,201ZM220.91,126.7H211l11.52,10.85.36-.11.59-1-2.57-9.71Zm-9.89-4h9.9l2.55-9.57-.79-1.36h0L211,122.7Zm15.3-12.62.56,1,1.83.49q-.15-1.24-.34-2.46l-2,.59h0Zm2,30.31q.19-1.26.35-2.52l-1.72.49-.8,1.38ZM59.8,205.7h0l-1.32,1.24q.87.7,1.76,1.38l.34-1.27h0Zm24.41,15h0l-1,1q1.08.46,2.18.89l.39-1.67-.23-.21Zm1.62-192-.46-2q-1.07.42-2.12.87l1.09,1.09ZM60.62,42.45,60.23,41l-1.76,1.38,1.16,1.09.48-.15Z"/></g><g id="_40_band" data-name="40% band"><path class="cls-4" d="M22.34,151.42,27,151l-3.76,3.51C22.9,153.52,22.61,152.47,22.34,151.42ZM48.11,126.7h-3.5L31.15,146.24l28.49-8.68Zm15.18,13,15.35,4.61.55.95L68.13,168.56,62,142Zm15.39-34.65-15.16,4.58,6.72-29,10.19,21.44Zm-18.86,6.65-11.7,11H47L32.41,101.51l26.12,8Zm47.71,35.54-23.67-1.89-1.74-3,3.64-15.42ZM85.82,122.7l-3.68-15.6.55-.95,25.7-2.08-20,18.63Zm125.19,4,11.52,10.85L194,146.21,207.5,126.7Zm-15.73-25.21,26.07,8,1.34,2.31L211,122.7h-1.08ZM160.13,152l-15.18,4.59,6.72-29L161.86,149ZM144.67,92.71l15.4,4.62.55,1-11.06,23.28-6.18-26.63ZM189.84,151l-20,18.65h-2.61l-3.68-15.62.56-1ZM163.55,95.36,167.19,80,189,100.29l-23.69-1.91ZM68.13,74.57,62,48.06l1.37-2.38,15.23,4.57.57,1Zm14-26.25,3.65-15.44,21.77,20.3-23.7-1.9ZM78.67,199,63.52,203.6l6.72-29L80.42,196Zm29.73-1-20,18.67H85.83L82.13,201l.54-.93Zm32.83-39.31-11.69,11h-1.07l-14.65-21.23,26.08,8ZM112.57,99.23,126,79.7h3.48l11.53,10.85Zm17,74.47,11.51,10.82-28.48,8.67L126,173.7Zm20,41.84L143.41,189l1.33-2.31L160,191.28l.58,1ZM189,194.24l-23.71-1.91-1.71-3,3.65-15.43ZM151.67,33.56,161.83,55,160,58.1l-15.08,4.56Zm-37.84,21,26.11,8,1.3,2.26-11.68,11h-1.11Zm76,2.52L169.87,75.7h-2.63L163.55,60l.5-.86Zm37.78,47.51c-.09-.47-.2-.93-.3-1.39.41,2,.78,3.92,1.08,5.92l-2,.59ZM224.87,142l1.32-2.28,2.17.65q-.69,4.6-1.77,9.05Zm-26.73,57.6-2.88-4.18,5.41,1.65C199.84,198,199,198.78,198.14,199.61Zm-47.67,27,1.2-5.13,2.05,4.24C152.64,226.09,151.56,226.38,150.46,226.66Zm-64.7-5.75,3.29,3c-1.24-.44-2.47-.89-3.68-1.37ZM58.47,203.4l1.32,2.29-1.32,1.24q-3.25-2.6-6.29-5.45ZM22.58,97l3.53,3.3-4.29-.35C22.06,99,22.31,98,22.58,97ZM88.38,28.7H85.83l-.46-2q4-1.59,8.16-2.85ZM151.72,23l-2.16,4.53-1.26-5.4C149.45,22.39,150.59,22.68,151.72,23Zm47.35,27.65L194,52.19l2.7-3.92C197.51,49,198.28,49.84,199.07,50.64ZM59.63,43.48l-3.89,1.19c.9-.77,1.81-1.54,2.73-2.28l1.16,1.09Z"/></g><g id="outlines_--_combound_path" data-name="outlines -- combound path"><path class="cls-5" d="M229.49,122.11c0-.63,0-1.25-.07-1.88,0-.19,0-.38,0-.57s0-.26,0-.39,0-.5,0-.75q-.07-1.17-.16-2.34c0-.4-.06-.79-.1-1.19v-.18h0L226.88,111h0l-.56-1,.1-.41,1.18-5.11c-.09-.47-.2-.93-.3-1.39h0c-.22-1.06-.46-2.11-.7-3.16-.33-1.42-.68-2.82-1.08-4.21L223.39,105l-8.27-14.32-6.34-11h10.68c-.14-.29-.29-.58-.43-.87q-.6-1.24-1.23-2.46c-.11-.22-.22-.45-.34-.67h-8.65l4.31-7.46h0c-.15-.23-.31-.45-.45-.68-.61-.94-1.23-1.88-1.87-2.81l-.15-.22h0l-5.32,9.21L196.28,58l-1.16-2,7.07-2.16c-.5-.55-1-1.08-1.54-1.62l-.63-.67c-.31-.32-.6-.64-.91-1h0L194,52.19l-.93.29-2.37-4.11-5.52-9.57,0,0-.52-.35c-1.13-.79-2.26-1.56-3.42-2.31l-.69-.44q-3.8-2.41-7.8-4.49l-.75-.39q-1.88-1-3.8-1.83l-.5-.24H153.43l2.18-4.59c-.64-.2-1.3-.38-1.95-.56l-1.61-.46-.34-.1h0l-2.16,4.53L149,28.7H127.4l5.2-9h0l-.75,0c-1.1-.08-2.2-.14-3.31-.19l-.41,0h0l-4.21,7.29-4.19-7.27h0l-.66,0c-.94,0-1.87.11-2.81.18l-1,.06v0l5.17,9H80.77c-.84.38-1.67.8-2.5,1.2-.44.22-.9.42-1.34.64l-.42.21-1.27.67-.92.48h0l-.42.23h0q-2.58,1.41-5.07,3l-.74.47h0l-.67.43-1,.67-.64.43c-.9.6-1.78,1.22-2.66,1.85l-.67.46h0l0,0-1.72,3h0l-.51.88-.48.15h0l-3.89,1.19h0l-.24.21h0c-.77.66-1.51,1.34-2.26,2l-.47.43-.49.44h0l-.06.06q-1.59,1.49-3.12,3l8.11-2.47L48.92,62.72,42.53,73.78,37.46,65v0c-.18.27-.35.54-.53.81-.53.78-1.05,1.57-1.56,2.37L35,68.7h0l4,7H31c-.1.19-.19.39-.29.58q-.74,1.43-1.44,2.88L29,79.7H39.11L30,95.41l-1.15,2-5-4.71c-.23.71-.42,1.43-.63,2.15s-.38,1.23-.55,1.86l-.09.29h0l3.53,3.3.72.68-2.47,4.29-4.89,8.46,0,0c0,.25,0,.51-.06.77q-.14,1.47-.24,2.94c0,.3,0,.6-.07.9q-.12,2-.16,4.05c0,.09,0,.18,0,.27h0l9-15.55,1.6-2.77L42.18,122.7H18.92c0,.65,0,1.31,0,2,0,0,0,.1,0,.15,0,.63,0,1.26,0,1.89H66.2l-5.61,9.72-.59,1-.37.11-28.49,8.68-.9.27-2.33-4-9-15.55v0c0,.11,0,.22,0,.33q0,2,.17,4c0,.31,0,.62.07.93q.11,1.59.27,3.16c0,.2,0,.4.05.6v0l4.95,8.57L26,147.11l-4.59.37c.15.66.32,1.31.47,2,.11.45.21.89.32,1.34.05.21.1.42.15.63h0L27,151l1.22-.1L30,154.09l9,15.61H29c.1.2.2.4.3.6q.68,1.41,1.4,2.8c.1.2.2.4.3.6h8.07l-4,7h0l.4.61q.73,1.15,1.5,2.27c.19.28.37.57.56.85v0l5-8.66,6.38,11.06,9.58,16.6,1.32,2.29.78,1.35h0l1.51,2.61,0,.06h0c.9.66,1.82,1.28,2.74,1.91l.76.53,0,0,.33.23.26.17.84.54,1,.64h0l.62.4h0q1.27.79,2.56,1.54h0l.13.07h0l.3.17c.71.41,1.43.82,2.16,1.21l.42.22h0q1.11.6,2.23,1.17h0l.18.09.19.1h0c1.32.66,2.65,1.31,4,1.92h4.6l.23.21,3.29,3h0l.12,0h0c.89.31,1.79.6,2.69.89h0l.77.25,1,.31h0c1.4.43,2.82.83,4.24,1.2l-6.45-6h29.06l-5.13,8.88v0l1,.06c.94.07,1.89.13,2.84.18l.61,0h0l4.11-7.12,4.12,7.14h0l.32,0c1.14,0,2.27-.11,3.39-.19l.77,0h0l-5.16-8.94h20.4l-1.64,7c.73-.15,1.45-.34,2.17-.51l1.56-.36.62-.14h0l1.2-5.13.2-.84h15.62l1.09-.51L169,220q1.27-.6,2.52-1.23l.22-.11q1-.53,2.08-1.09l.43-.23,1.63-.91,1.22-.7q1-.57,1.95-1.16l.35-.22q1-.64,2.06-1.31l.23-.15q1.14-.74,2.25-1.51l.49-.34.93-.65,0,0,5.32-9.22,1.63-2.83,2.85,4.13c.5-.46,1-.93,1.47-1.39l.6-.57c.29-.28.58-.54.87-.82l0,0-2.88-4.18-.67-1,1.8-3.12,9-15.56,5.24,9.08h0l.12-.18c.65-.93,1.28-1.88,1.9-2.84.15-.23.31-.46.46-.69h0l-4.31-7.46h8.65c.11-.21.21-.43.33-.65q.64-1.24,1.25-2.5c.14-.29.29-.56.43-.85H208.89l6.28-10.88,9.7-16.81,1.32-2.28.8-1.38h0l2-3.54h0v-.32c0-.4.07-.8.1-1.2q.1-1.24.17-2.49c0-.21,0-.43,0-.64s0-.19,0-.29c0-.34,0-.68,0-1,0-.51,0-1,.06-1.54h0c0-.07,0-.14,0-.21q0-.93,0-1.86c0-.17,0-.34,0-.52v0Q229.53,123.38,229.49,122.11ZM211.65,92.66l9.7,16.79,1.34,2.31.79,1.36L229,122.7H209.94l-14.66-21.21h0l-.73-1.06,1.82-3.15,9-15.54ZM90.45,156.77l-6.58-11.4-1.74-3-5-8.71-4-7H85.5l.26.24,21.77,20.33.66.61-2.47,4.28-9,15.54Zm2.84,12.92H72l9.6-20.21L87,158.77ZM113,79.7h34.56L142,89.34l-.65,1.12-.29.09-28.49,8.67h0l-.9.28-2.36-4.09L100.23,79.7Zm-12.73-4,9-15.63,1.6-2.78L123.6,75.7H100.27Zm60.36,22.59-11.06,23.28L149,122.7H127.36l6.33-11,9.69-16.79,1.28-2.22.78-1.35h0L151,81.68l4,7,5,8.68h0Zm2.43,4.21,5.32,9.21,6.34,11H153.45Zm-52.18,48.74,12.73,18.46H100.22L109.27,154ZM91.37,126.7h29.06l-9,15.66-1.14,2Zm22.45,21.77h0l-.73-1.06,1.77-3.07,9-15.65,6.37,11,9.64,16.7h0l1.32,2.29.78,1.35,5.57,9.64h-19.1Zm1.07-43.36-1.18-2,24.7-7.52-8.19,14.19-6.33,11Zm27,46.83-8.21-14.22-6.36-11h20.41ZM105.84,97.41l1.57,2.72-22.29,1.8,5.29-9.16,6.38-11.05Zm2.55,6.66,1.24-.1,1.77,3.06,9,15.66H73.13l4.07-7.05,4.94-8.55.55-.95Zm-2.57,87.31,1.57,2.71L85.1,195.88l5.27-9.14,6.38-11.05Zm-5.59-17.69h47.4L142,183.4l-.57,1-.39.12-28.48,8.67-.94.29-2.35-4.07ZM145.44,158h0l-.58-1,.09-.38,6.72-29,.21-.9h22.88l-6.38,11.06L161.86,149l-1.73,3-5,8.58h0l-4.12,7.13Zm13.2,4.61,4.93-8.54.56-1,25.7-2.06L191,151l1.79,3.09,9,15.65h-47.3Zm7.92-13.72,5.29-9.16,6.35-11,9,15.61,1.6,2.77Zm5.28-39.17-6.55-11.35-1.74-3-5-8.71-4-7h12.41l.28.26L189,100.29l.67.62-2.4,4.16-9,15.66Zm18.83-2.6,1.65-2.86,12.74,18.43H181.69Zm2.16-11.75-1.14,2L172.78,79.7h29.12ZM191,56.94l1.8,3.12,9,15.64H154.49l4.1-7.09,5-8.59.5-.86L189.82,57Zm-3.79-6.57,1.58,2.74-22.34,1.83,5.31-9.2,6.38-11.06ZM151.67,33.56l.2-.86H174.7l-6.36,11L161.83,55,160,58.1l-4.92,8.53h0L151,73.68l-5.56-9.63L144.87,63l.08-.34Zm-6.28-.86h2.38l-5.83,25.23-8.18-14.17L127.37,32.7ZM130.31,45.78l9.64,16.69,1.3,2.26.77,1.33,5.57,9.64H128.46L113.83,54.51l-.73-1.05,1.76-3,9.06-15.69ZM107.72,32.7h12.75L111.4,48.4l-1.1,1.9L91.42,32.7Zm-23.54,0h1.37l.21.19,21.77,20.3.72.67-2.49,4.32-9,15.55L90.47,62.8,83.83,51.3l-1.71-3-5-8.73h0l-4-6.9Zm9.12,43H72l9.59-20.24L87,64.79Zm-40.93-11L62,48.06l1.37-2.38.83-1.44h0l5.47-9.47,3.93,6.81h0l5,8.67.57,1-11,23.33h0L67.6,75.7H46Zm11.68,15h2.29l-5.83,25.22-8.2-14.2L46,79.7Zm-6,43H47L32.41,101.51l-.69-1,1.84-3.18,9-15.55,6.31,10.93,9.68,16.77,1.3,2.25.77,1.33,5.57,9.64Zm6-11.64h0L63.44,110l.08-.34,6.72-29,.21-.92H93.34L87,90.76l-6.52,11.3-1.74,3-4.95,8.57h0l-4.09,7.09ZM62,142h0l1.32-2.29.8-1.38,5.55-9.61,4,6.91,5,8.69.55.95L68.13,168.56h0l-.54,1.14H46l6.29-10.89ZM33.53,152.2l-1.23-2.14,24.77-7.55-8.26,14.3L42.5,167.74Zm27,46.72-8.16-14.14-6.4-11.08h20.4Zm9.12,15.79L64,205l-.58-1,.09-.39,6.72-29,.21-.9H93.29l-6.37,11L80.42,196l-1.75,3-4.94,8.56h0Zm38.09,2H73.09l4.11-7.11L82.13,201h0l.54-.93L108.4,198l1.2-.1,1.81,3.14,9,15.63Zm16.21-1.95-9.06-15.69-1.18-2,24.83-7.56-8.22,14.23Zm25.64.79L149,216.7H127.42l6.34-11L143.41,189h0l1.33-2.31.81-1.4h0l5.51-9.55,4,6.87h0l5,8.66.58,1Zm7.19,1.16h-3.31l9.6-20.21,5.41,9.37,6.26,10.84Zm30.45-17.43-9,15.53-6.3-10.92-6.67-11.55-1.71-3-5-8.73-4-6.94h12.44l.25.24L189,194.24l.74.69Zm5.64-9.76-1.08,1.86-19-17.67H202Zm18.88-32.71-6.35,11-9-15.64-1.21-2.1L220,142.51Zm11.77-20.38-.59,1-.36.11L194,146.21l-.94.29-2.41-4.17-9-15.63h47.45Z"/></g></svg>