<svg id="Pictograms" xmlns="http://www.w3.org/2000/svg" viewBox="0 0 240 240"><defs><style>.cls-1{fill:#e35500;}.cls-2,.cls-3,.cls-4{fill:#f0ab00;}.cls-3{opacity:0.7;}.cls-4{opacity:0.4;}.cls-5{fill:#fff;}</style></defs><title>281100-pictogram-neg</title><path class="cls-1" d="M120,166V28a92,92,0,0,0,0,184Z"/><path class="cls-2" d="M120,28A91.94,91.94,0,0,0,40.34,74H120Z"/><path class="cls-3" d="M120,74H40.34A91.54,91.54,0,0,0,28,120h92Z"/><path class="cls-4" d="M120,120H28a91.54,91.54,0,0,0,12.34,46H120Z"/><path class="cls-5" d="M120,28v4c7.94,0,16,9.14,22,25.07A128.09,128.09,0,0,1,146.62,72H120v4h27.55A207.55,207.55,0,0,1,152,118H120v4h32a207.55,207.55,0,0,1-4.44,42H120v4h26.62A128.09,128.09,0,0,1,142,182.93C136,198.86,127.94,208,120,208v4a92,92,0,0,0,0-184Zm88,94a87.43,87.43,0,0,1-11.79,42H179.83A118.35,118.35,0,0,0,188,122Zm-20-4a118.35,118.35,0,0,0-8.14-42h16.36A87.43,87.43,0,0,1,208,118Zm5.76-46H178.12a93.58,93.58,0,0,0-9.7-16.82A72.33,72.33,0,0,0,150,37.25,88.47,88.47,0,0,1,193.72,72ZM132.41,33.63c12.37,3.29,23.72,11.5,32.79,23.91A88.93,88.93,0,0,1,173.72,72h-23C146.49,54.49,140.06,40.83,132.41,33.63ZM151.61,76H175.5A113.74,113.74,0,0,1,184,118H156A211.28,211.28,0,0,0,151.61,76ZM156,122h28a113.74,113.74,0,0,1-8.46,42H151.61A211.28,211.28,0,0,0,156,122Zm-5.29,46h23a88.93,88.93,0,0,1-8.53,14.46c-9.07,12.41-20.42,20.62-32.79,23.91C140.06,199.17,146.49,185.51,150.7,168ZM150,202.75a72.33,72.33,0,0,0,18.47-17.93,93.58,93.58,0,0,0,9.7-16.82h15.59A88.47,88.47,0,0,1,150,202.75Z"/></svg>