<svg xmlns="http://www.w3.org/2000/svg" viewBox="0 0 248 248"><defs><style>.cls-1{fill:#e35500;}.cls-2,.cls-3,.cls-4{fill:#f0ab00;}.cls-3{opacity:0.7;}.cls-4{opacity:0.4;}.cls-5{fill:#fff;}</style></defs><title>284106-pictogram-neg</title><g id="color_band" data-name="color band"><path class="cls-1" d="M86.82,142.83v36.61l-15.1-7.33-16.9-8.2V127.3l16.9,8.2Zm19.1,9.27-15.1-7.33v36.61l15.1,7.33,16.9,8.2V160.3ZM71.72,94.26l-16.9-8.2v36.58l16.9,8.2,15.1,7.33V101.59Zm34.2,16.6-15.1-7.33v36.59l15.1,7.33,16.9,8.2V119.07Z"/></g><g id="_100_band" data-name="100% band"><path class="cls-2" d="M122.82,160.3v36.61l-16.9-8.2V152.1Zm-16.9-49.44v36.59l16.9,8.2V119.07Z"/></g><g id="_70_band" data-name="70% band"><path class="cls-3" d="M105.92,110.86v36.59l-15.1-7.33V103.53Zm-15.1,33.91v36.61l15.1,7.33V152.1Z"/></g><g id="_40_band" data-name="40% band"><path class="cls-4" d="M86.82,142.83v36.61l-15.1-7.33V135.5ZM71.72,94.26v36.58l15.1,7.33V101.59Z"/></g><g id="outlines_--_combound_path" data-name="outlines -- combound path"><path class="cls-5" d="M198.82,82.84a1.68,1.68,0,0,0-.07-.5.57.57,0,0,0,0-.14,1.34,1.34,0,0,0-.07-.18.92.92,0,0,0-.13-.24,1.84,1.84,0,0,0-.82-.74l-.07,0L161.69,63.57l-36-17.47a2,2,0,0,0-1.75,0l-36,17.47-33,16-.35.17L52,81l-.07,0a1.91,1.91,0,0,0-.88.85,1.11,1.11,0,0,0-.09.19,1.18,1.18,0,0,0-.07.2.78.78,0,0,0,0,.21,1.34,1.34,0,0,0,0,.35V123.9a.51.51,0,0,1,0,.2v41.06a2,2,0,0,0,1.12,1.8l2.68,1.3,17.1,8.3,16.22,7.87.88.43,17.1,8.3,17.1,8.29.73.35.19.1.11,0,.22.07a1.1,1.1,0,0,0,.26.06h0l.28,0,.27,0,.27-.06.23-.07.1,0,36-17.47,36-17.47a2,2,0,0,0,1.13-1.8V124.1a.51.51,0,0,1,0-.2Zm-74-32.72,31.41,15.25L124.82,80.62h0L123,79.75h0l-.36-.17L93.4,65.37Zm-38,129.32-15.1-7.33-16.9-8.2V127.3l16.9,8.2,15.1,7.33Zm0-41.27-15.1-7.33-16.9-8.2V86.06l16.9,8.2,15.1,7.33Zm2-40.08-17.09-8.3-14.32-7,6.74-3.27,24.67-12h0l24.67,12,6.74,3.27-1.61.78-8.42,4.09-1.4.68-2.88,1.4L95,95.11l-6.13,3Zm34,98.82-16.9-8.2-15.1-7.33V144.77l15.1,7.33,16.9,8.2Zm0-41.26-16.9-8.2-15.1-7.33V103.53l15.1,7.33,16.9,8.21Zm2-40.09h0l-1.79-.87h0l-17.1-8.29L93.4,100.31l12.52-6.08L123,85.94h0l1.79-.87h0l31.41,15.25Zm34,65.82-32,15.53V160.3l32-15.53Zm0-41.26-32,15.53V119l32-15.53Zm2-42h0L129.4,82.84l31.42-15.25,31.41,15.25Zm34,65.82-32,15.53V142.83l32-15.53Zm0-41.27-32,15.53V101.56l32-15.53Z"/></g></svg>