<svg id="Pictograms" xmlns="http://www.w3.org/2000/svg" viewBox="0 0 240 240"><defs><style>.cls-1{fill:#e35500;}.cls-2,.cls-3,.cls-4{fill:#f0ab00;}.cls-2{opacity:0.4;}.cls-3{opacity:0.7;}.cls-5{fill:#fff;}</style></defs><title>281531-pictogram-neg</title><polygon class="cls-1" points="200.41 28 228 88 12 88 40.17 28 200.41 28"/><polygon class="cls-2" points="120 28 120 88 66 88 76 28 120 28"/><rect class="cls-3" x="117" y="31" width="60" height="54" transform="translate(89 205) rotate(-90)"/><polygon class="cls-4" points="200.41 28 228 88 174 88 163.5 28 200.41 28"/><path class="cls-5" d="M200,88V188.5H188V120H144v68.5H40V88H36V192.5H204V88ZM148,188.5V124h36v21.08a8,8,0,1,0,0,13.83V188.5ZM184,152a4,4,0,1,1-4-4A4,4,0,0,1,184,152ZM36,200H204v4H36ZM188,100H144v16h44Zm-4,12H148v-8h36Zm-52-12H52v60h80Zm-4,4v40.5H56V104ZM56,156v-7.5h72V156Z"/></svg>